<?xml version="1.0" standalone="no"?>
<!DOCTYPE svg PUBLIC "-//W3C//DTD SVG 1.0//EN" "http://www.w3.org/TR/2001/REC-SVG-20010904/DTD/svg10.dtd">
<svg width="800" height="600"> 
<rect width="800" height="600" style="fill:rgb(255,255,255)"/>
<rect width="800" height="600" style="fill:rgb(255,255,255)"/>
<line x1="238" y1="294" x2="238" y2="293" style="stroke:rgb(0,0,65535);stroke-width:1"/>
<line x1="238" y1="293" x2="238" y2="293" style="stroke:rgb(0,0,65535);stroke-width:1"/>
<line x1="238" y1="293" x2="238" y2="293" style="stroke:rgb(0,0,65535);stroke-width:1"/>
<line x1="238" y1="293" x2="238" y2="293" style="stroke:rgb(0,0,65535);stroke-width:1"/>
<line x1="238" y1="293" x2="238" y2="292" style="stroke:rgb(0,0,65535);stroke-width:1"/>
<line x1="238" y1="292" x2="238" y2="292" style="stroke:rgb(0,0,65535);stroke-width:1"/>
<line x1="238" y1="292" x2="238" y2="291" style="stroke:rgb(0,0,65535);stroke-width:1"/>
<line x1="238" y1="291" x2="238" y2="291" style="stroke:rgb(0,0,65535);stroke-width:1"/>
<line x1="238" y1="291" x2="238" y2="290" style="stroke:rgb(0,0,65535);stroke-width:1"/>
<line x1="238" y1="290" x2="238" y2="290" style="stroke:rgb(0,0,65535);stroke-width:1"/>
<line x1="238" y1="290" x2="238" y2="290" style="stroke:rgb(0,0,65535);stroke-width:1"/>
<line x1="238" y1="290" x2="238" y2="290" style="stroke:rgb(0,0,65535);stroke-width:1"/>
<line x1="238" y1="290" x2="238" y2="291" style="stroke:rgb(0,0,65535);stroke-width:1"/>
<line x1="238" y1="291" x2="238" y2="294" style="stroke:rgb(0,0,65535);stroke-width:1"/>
<line x1="238" y1="294" x2="238" y2="294" style="stroke:rgb(0,0,65535);stroke-width:1"/>
<line x1="238" y1="294" x2="238" y2="298" style="stroke:rgb(0,0,65535);stroke-width:1"/>
<line x1="238" y1="298" x2="238" y2="300" style="stroke:rgb(0,0,65535);stroke-width:1"/>
<line x1="238" y1="300" x2="238" y2="303" style="stroke:rgb(0,0,65535);stroke-width:1"/>
<line x1="238" y1="303" x2="238" y2="307" style="stroke:rgb(0,0,65535);stroke-width:1"/>
<line x1="238" y1="307" x2="238" y2="310" style="stroke:rgb(0,0,65535);stroke-width:1"/>
<line x1="238" y1="310" x2="238" y2="314" style="stroke:rgb(0,0,65535);stroke-width:1"/>
<line x1="238" y1="314" x2="239" y2="319" style="stroke:rgb(0,0,65535);stroke-width:1"/>
<line x1="239" y1="319" x2="239" y2="324" style="stroke:rgb(0,0,65535);stroke-width:1"/>
<line x1="239" y1="324" x2="239" y2="329" style="stroke:rgb(0,0,65535);stroke-width:1"/>
<line x1="239" y1="329" x2="240" y2="334" style="stroke:rgb(0,0,65535);stroke-width:1"/>
<line x1="240" y1="334" x2="240" y2="340" style="stroke:rgb(0,0,65535);stroke-width:1"/>
<line x1="240" y1="340" x2="240" y2="345" style="stroke:rgb(0,0,65535);stroke-width:1"/>
<line x1="240" y1="345" x2="240" y2="351" style="stroke:rgb(0,0,65535);stroke-width:1"/>
<line x1="240" y1="351" x2="241" y2="356" style="stroke:rgb(0,0,65535);stroke-width:1"/>
<line x1="241" y1="356" x2="241" y2="361" style="stroke:rgb(0,0,65535);stroke-width:1"/>
<line x1="241" y1="361" x2="241" y2="366" style="stroke:rgb(0,0,65535);stroke-width:1"/>
<line x1="241" y1="366" x2="241" y2="370" style="stroke:rgb(0,0,65535);stroke-width:1"/>
<line x1="241" y1="370" x2="241" y2="374" style="stroke:rgb(0,0,65535);stroke-width:1"/>
<line x1="241" y1="374" x2="241" y2="376" style="stroke:rgb(0,0,65535);stroke-width:1"/>
<line x1="241" y1="376" x2="241" y2="377" style="stroke:rgb(0,0,65535);stroke-width:1"/>
<line x1="241" y1="377" x2="241" y2="380" style="stroke:rgb(0,0,65535);stroke-width:1"/>
<line x1="241" y1="380" x2="241" y2="380" style="stroke:rgb(0,0,65535);stroke-width:1"/>
<line x1="241" y1="380" x2="241" y2="381" style="stroke:rgb(0,0,65535);stroke-width:1"/>
<line x1="241" y1="381" x2="240" y2="382" style="stroke:rgb(0,0,65535);stroke-width:1"/>
<line x1="240" y1="382" x2="240" y2="382" style="stroke:rgb(0,0,65535);stroke-width:1"/>
<line x1="241" y1="296" x2="241" y2="296" style="stroke:rgb(0,0,65535);stroke-width:1"/>
<line x1="241" y1="296" x2="241" y2="296" style="stroke:rgb(0,0,65535);stroke-width:1"/>
<line x1="241" y1="296" x2="241" y2="295" style="stroke:rgb(0,0,65535);stroke-width:1"/>
<line x1="241" y1="295" x2="241" y2="295" style="stroke:rgb(0,0,65535);stroke-width:1"/>
<line x1="241" y1="295" x2="241" y2="295" style="stroke:rgb(0,0,65535);stroke-width:1"/>
<line x1="241" y1="295" x2="241" y2="295" style="stroke:rgb(0,0,65535);stroke-width:1"/>
<line x1="241" y1="295" x2="242" y2="295" style="stroke:rgb(0,0,65535);stroke-width:1"/>
<line x1="242" y1="295" x2="243" y2="294" style="stroke:rgb(0,0,65535);stroke-width:1"/>
<line x1="243" y1="294" x2="243" y2="294" style="stroke:rgb(0,0,65535);stroke-width:1"/>
<line x1="243" y1="294" x2="244" y2="294" style="stroke:rgb(0,0,65535);stroke-width:1"/>
<line x1="244" y1="294" x2="247" y2="294" style="stroke:rgb(0,0,65535);stroke-width:1"/>
<line x1="247" y1="294" x2="248" y2="294" style="stroke:rgb(0,0,65535);stroke-width:1"/>
<line x1="248" y1="294" x2="251" y2="294" style="stroke:rgb(0,0,65535);stroke-width:1"/>
<line x1="251" y1="294" x2="253" y2="294" style="stroke:rgb(0,0,65535);stroke-width:1"/>
<line x1="253" y1="294" x2="256" y2="294" style="stroke:rgb(0,0,65535);stroke-width:1"/>
<line x1="256" y1="294" x2="258" y2="294" style="stroke:rgb(0,0,65535);stroke-width:1"/>
<line x1="258" y1="294" x2="259" y2="295" style="stroke:rgb(0,0,65535);stroke-width:1"/>
<line x1="259" y1="295" x2="262" y2="296" style="stroke:rgb(0,0,65535);stroke-width:1"/>
<line x1="262" y1="296" x2="262" y2="298" style="stroke:rgb(0,0,65535);stroke-width:1"/>
<line x1="262" y1="298" x2="263" y2="299" style="stroke:rgb(0,0,65535);stroke-width:1"/>
<line x1="263" y1="299" x2="263" y2="302" style="stroke:rgb(0,0,65535);stroke-width:1"/>
<line x1="263" y1="302" x2="263" y2="303" style="stroke:rgb(0,0,65535);stroke-width:1"/>
<line x1="263" y1="303" x2="263" y2="306" style="stroke:rgb(0,0,65535);stroke-width:1"/>
<line x1="263" y1="306" x2="263" y2="308" style="stroke:rgb(0,0,65535);stroke-width:1"/>
<line x1="263" y1="308" x2="260" y2="311" style="stroke:rgb(0,0,65535);stroke-width:1"/>
<line x1="260" y1="311" x2="259" y2="312" style="stroke:rgb(0,0,65535);stroke-width:1"/>
<line x1="259" y1="312" x2="256" y2="315" style="stroke:rgb(0,0,65535);stroke-width:1"/>
<line x1="256" y1="315" x2="255" y2="316" style="stroke:rgb(0,0,65535);stroke-width:1"/>
<line x1="255" y1="316" x2="252" y2="319" style="stroke:rgb(0,0,65535);stroke-width:1"/>
<line x1="252" y1="319" x2="251" y2="320" style="stroke:rgb(0,0,65535);stroke-width:1"/>
<line x1="251" y1="320" x2="249" y2="322" style="stroke:rgb(0,0,65535);stroke-width:1"/>
<line x1="249" y1="322" x2="249" y2="323" style="stroke:rgb(0,0,65535);stroke-width:1"/>
<line x1="249" y1="323" x2="248" y2="324" style="stroke:rgb(0,0,65535);stroke-width:1"/>
<line x1="248" y1="324" x2="248" y2="324" style="stroke:rgb(0,0,65535);stroke-width:1"/>
<line x1="248" y1="324" x2="248" y2="325" style="stroke:rgb(0,0,65535);stroke-width:1"/>
<line x1="248" y1="325" x2="248" y2="326" style="stroke:rgb(0,0,65535);stroke-width:1"/>
<line x1="248" y1="326" x2="249" y2="327" style="stroke:rgb(0,0,65535);stroke-width:1"/>
<line x1="249" y1="327" x2="252" y2="328" style="stroke:rgb(0,0,65535);stroke-width:1"/>
<line x1="252" y1="328" x2="254" y2="329" style="stroke:rgb(0,0,65535);stroke-width:1"/>
<line x1="254" y1="329" x2="257" y2="329" style="stroke:rgb(0,0,65535);stroke-width:1"/>
<line x1="257" y1="329" x2="259" y2="332" style="stroke:rgb(0,0,65535);stroke-width:1"/>
<line x1="259" y1="332" x2="262" y2="332" style="stroke:rgb(0,0,65535);stroke-width:1"/>
<line x1="262" y1="332" x2="264" y2="335" style="stroke:rgb(0,0,65535);stroke-width:1"/>
<line x1="264" y1="335" x2="266" y2="336" style="stroke:rgb(0,0,65535);stroke-width:1"/>
<line x1="266" y1="336" x2="267" y2="340" style="stroke:rgb(0,0,65535);stroke-width:1"/>
<line x1="267" y1="340" x2="269" y2="342" style="stroke:rgb(0,0,65535);stroke-width:1"/>
<line x1="269" y1="342" x2="270" y2="345" style="stroke:rgb(0,0,65535);stroke-width:1"/>
<line x1="270" y1="345" x2="270" y2="348" style="stroke:rgb(0,0,65535);stroke-width:1"/>
<line x1="270" y1="348" x2="270" y2="351" style="stroke:rgb(0,0,65535);stroke-width:1"/>
<line x1="270" y1="351" x2="270" y2="354" style="stroke:rgb(0,0,65535);stroke-width:1"/>
<line x1="270" y1="354" x2="269" y2="357" style="stroke:rgb(0,0,65535);stroke-width:1"/>
<line x1="269" y1="357" x2="266" y2="360" style="stroke:rgb(0,0,65535);stroke-width:1"/>
<line x1="266" y1="360" x2="263" y2="363" style="stroke:rgb(0,0,65535);stroke-width:1"/>
<line x1="263" y1="363" x2="260" y2="365" style="stroke:rgb(0,0,65535);stroke-width:1"/>
<line x1="260" y1="365" x2="258" y2="366" style="stroke:rgb(0,0,65535);stroke-width:1"/>
<line x1="258" y1="366" x2="255" y2="369" style="stroke:rgb(0,0,65535);stroke-width:1"/>
<line x1="255" y1="369" x2="252" y2="370" style="stroke:rgb(0,0,65535);stroke-width:1"/>
<line x1="252" y1="370" x2="249" y2="371" style="stroke:rgb(0,0,65535);stroke-width:1"/>
<line x1="249" y1="371" x2="249" y2="372" style="stroke:rgb(0,0,65535);stroke-width:1"/>
<line x1="249" y1="372" x2="246" y2="372" style="stroke:rgb(0,0,65535);stroke-width:1"/>
<line x1="246" y1="372" x2="246" y2="372" style="stroke:rgb(0,0,65535);stroke-width:1"/>
<line x1="246" y1="372" x2="245" y2="372" style="stroke:rgb(0,0,65535);stroke-width:1"/>
<line x1="245" y1="372" x2="244" y2="372" style="stroke:rgb(0,0,65535);stroke-width:1"/>
<line x1="244" y1="372" x2="243" y2="372" style="stroke:rgb(0,0,65535);stroke-width:1"/>
<line x1="243" y1="372" x2="243" y2="372" style="stroke:rgb(0,0,65535);stroke-width:1"/>
<line x1="285" y1="296" x2="285" y2="296" style="stroke:rgb(0,0,65535);stroke-width:1"/>
<line x1="285" y1="296" x2="285" y2="296" style="stroke:rgb(0,0,65535);stroke-width:1"/>
<line x1="285" y1="296" x2="285" y2="296" style="stroke:rgb(0,0,65535);stroke-width:1"/>
<line x1="285" y1="296" x2="285" y2="295" style="stroke:rgb(0,0,65535);stroke-width:1"/>
<line x1="285" y1="295" x2="285" y2="295" style="stroke:rgb(0,0,65535);stroke-width:1"/>
<line x1="285" y1="295" x2="285" y2="296" style="stroke:rgb(0,0,65535);stroke-width:1"/>
<line x1="285" y1="296" x2="285" y2="299" style="stroke:rgb(0,0,65535);stroke-width:1"/>
<line x1="285" y1="299" x2="285" y2="300" style="stroke:rgb(0,0,65535);stroke-width:1"/>
<line x1="285" y1="300" x2="285" y2="303" style="stroke:rgb(0,0,65535);stroke-width:1"/>
<line x1="285" y1="303" x2="285" y2="306" style="stroke:rgb(0,0,65535);stroke-width:1"/>
<line x1="285" y1="306" x2="285" y2="309" style="stroke:rgb(0,0,65535);stroke-width:1"/>
<line x1="285" y1="309" x2="285" y2="313" style="stroke:rgb(0,0,65535);stroke-width:1"/>
<line x1="285" y1="313" x2="285" y2="317" style="stroke:rgb(0,0,65535);stroke-width:1"/>
<line x1="285" y1="317" x2="285" y2="321" style="stroke:rgb(0,0,65535);stroke-width:1"/>
<line x1="285" y1="321" x2="285" y2="326" style="stroke:rgb(0,0,65535);stroke-width:1"/>
<line x1="285" y1="326" x2="285" y2="331" style="stroke:rgb(0,0,65535);stroke-width:1"/>
<line x1="285" y1="331" x2="285" y2="335" style="stroke:rgb(0,0,65535);stroke-width:1"/>
<line x1="285" y1="335" x2="285" y2="339" style="stroke:rgb(0,0,65535);stroke-width:1"/>
<line x1="285" y1="339" x2="285" y2="343" style="stroke:rgb(0,0,65535);stroke-width:1"/>
<line x1="285" y1="343" x2="285" y2="347" style="stroke:rgb(0,0,65535);stroke-width:1"/>
<line x1="285" y1="347" x2="285" y2="350" style="stroke:rgb(0,0,65535);stroke-width:1"/>
<line x1="285" y1="350" x2="286" y2="352" style="stroke:rgb(0,0,65535);stroke-width:1"/>
<line x1="286" y1="352" x2="286" y2="353" style="stroke:rgb(0,0,65535);stroke-width:1"/>
<line x1="286" y1="353" x2="286" y2="354" style="stroke:rgb(0,0,65535);stroke-width:1"/>
<line x1="286" y1="354" x2="286" y2="355" style="stroke:rgb(0,0,65535);stroke-width:1"/>
<line x1="286" y1="355" x2="286" y2="356" style="stroke:rgb(0,0,65535);stroke-width:1"/>
<line x1="286" y1="356" x2="286" y2="357" style="stroke:rgb(0,0,65535);stroke-width:1"/>
<line x1="286" y1="357" x2="286" y2="357" style="stroke:rgb(0,0,65535);stroke-width:1"/>
<line x1="302" y1="330" x2="302" y2="331" style="stroke:rgb(0,0,65535);stroke-width:1"/>
<line x1="302" y1="331" x2="302" y2="331" style="stroke:rgb(0,0,65535);stroke-width:1"/>
<line x1="302" y1="331" x2="302" y2="332" style="stroke:rgb(0,0,65535);stroke-width:1"/>
<line x1="302" y1="332" x2="302" y2="335" style="stroke:rgb(0,0,65535);stroke-width:1"/>
<line x1="302" y1="335" x2="302" y2="336" style="stroke:rgb(0,0,65535);stroke-width:1"/>
<line x1="302" y1="336" x2="302" y2="339" style="stroke:rgb(0,0,65535);stroke-width:1"/>
<line x1="302" y1="339" x2="302" y2="340" style="stroke:rgb(0,0,65535);stroke-width:1"/>
<line x1="302" y1="340" x2="303" y2="344" style="stroke:rgb(0,0,65535);stroke-width:1"/>
<line x1="303" y1="344" x2="303" y2="345" style="stroke:rgb(0,0,65535);stroke-width:1"/>
<line x1="303" y1="345" x2="304" y2="348" style="stroke:rgb(0,0,65535);stroke-width:1"/>
<line x1="304" y1="348" x2="305" y2="348" style="stroke:rgb(0,0,65535);stroke-width:1"/>
<line x1="305" y1="348" x2="306" y2="349" style="stroke:rgb(0,0,65535);stroke-width:1"/>
<line x1="306" y1="349" x2="309" y2="350" style="stroke:rgb(0,0,65535);stroke-width:1"/>
<line x1="309" y1="350" x2="309" y2="351" style="stroke:rgb(0,0,65535);stroke-width:1"/>
<line x1="309" y1="351" x2="312" y2="351" style="stroke:rgb(0,0,65535);stroke-width:1"/>
<line x1="312" y1="351" x2="313" y2="351" style="stroke:rgb(0,0,65535);stroke-width:1"/>
<line x1="313" y1="351" x2="316" y2="350" style="stroke:rgb(0,0,65535);stroke-width:1"/>
<line x1="316" y1="350" x2="317" y2="349" style="stroke:rgb(0,0,65535);stroke-width:1"/>
<line x1="317" y1="349" x2="319" y2="347" style="stroke:rgb(0,0,65535);stroke-width:1"/>
<line x1="319" y1="347" x2="320" y2="346" style="stroke:rgb(0,0,65535);stroke-width:1"/>
<line x1="320" y1="346" x2="323" y2="343" style="stroke:rgb(0,0,65535);stroke-width:1"/>
<line x1="323" y1="343" x2="323" y2="342" style="stroke:rgb(0,0,65535);stroke-width:1"/>
<line x1="323" y1="342" x2="324" y2="340" style="stroke:rgb(0,0,65535);stroke-width:1"/>
<line x1="324" y1="340" x2="325" y2="339" style="stroke:rgb(0,0,65535);stroke-width:1"/>
<line x1="325" y1="339" x2="325" y2="338" style="stroke:rgb(0,0,65535);stroke-width:1"/>
<line x1="325" y1="338" x2="325" y2="338" style="stroke:rgb(0,0,65535);stroke-width:1"/>
<line x1="325" y1="338" x2="325" y2="337" style="stroke:rgb(0,0,65535);stroke-width:1"/>
<line x1="325" y1="337" x2="326" y2="336" style="stroke:rgb(0,0,65535);stroke-width:1"/>
<line x1="326" y1="336" x2="326" y2="335" style="stroke:rgb(0,0,65535);stroke-width:1"/>
<line x1="326" y1="335" x2="326" y2="335" style="stroke:rgb(0,0,65535);stroke-width:1"/>
<line x1="337" y1="339" x2="337" y2="339" style="stroke:rgb(0,0,65535);stroke-width:1"/>
<line x1="337" y1="339" x2="338" y2="339" style="stroke:rgb(0,0,65535);stroke-width:1"/>
<line x1="338" y1="339" x2="338" y2="339" style="stroke:rgb(0,0,65535);stroke-width:1"/>
<line x1="338" y1="339" x2="339" y2="339" style="stroke:rgb(0,0,65535);stroke-width:1"/>
<line x1="339" y1="339" x2="339" y2="339" style="stroke:rgb(0,0,65535);stroke-width:1"/>
<line x1="339" y1="339" x2="340" y2="339" style="stroke:rgb(0,0,65535);stroke-width:1"/>
<line x1="340" y1="339" x2="341" y2="339" style="stroke:rgb(0,0,65535);stroke-width:1"/>
<line x1="341" y1="339" x2="342" y2="338" style="stroke:rgb(0,0,65535);stroke-width:1"/>
<line x1="342" y1="338" x2="342" y2="337" style="stroke:rgb(0,0,65535);stroke-width:1"/>
<line x1="342" y1="337" x2="343" y2="337" style="stroke:rgb(0,0,65535);stroke-width:1"/>
<line x1="343" y1="337" x2="344" y2="336" style="stroke:rgb(0,0,65535);stroke-width:1"/>
<line x1="344" y1="336" x2="345" y2="335" style="stroke:rgb(0,0,65535);stroke-width:1"/>
<line x1="345" y1="335" x2="345" y2="335" style="stroke:rgb(0,0,65535);stroke-width:1"/>
<line x1="345" y1="335" x2="345" y2="334" style="stroke:rgb(0,0,65535);stroke-width:1"/>
<line x1="345" y1="334" x2="345" y2="333" style="stroke:rgb(0,0,65535);stroke-width:1"/>
<line x1="345" y1="333" x2="345" y2="333" style="stroke:rgb(0,0,65535);stroke-width:1"/>
<line x1="345" y1="333" x2="345" y2="332" style="stroke:rgb(0,0,65535);stroke-width:1"/>
<line x1="345" y1="332" x2="344" y2="332" style="stroke:rgb(0,0,65535);stroke-width:1"/>
<line x1="344" y1="332" x2="342" y2="332" style="stroke:rgb(0,0,65535);stroke-width:1"/>
<line x1="342" y1="332" x2="341" y2="332" style="stroke:rgb(0,0,65535);stroke-width:1"/>
<line x1="341" y1="332" x2="340" y2="332" style="stroke:rgb(0,0,65535);stroke-width:1"/>
<line x1="340" y1="332" x2="337" y2="335" style="stroke:rgb(0,0,65535);stroke-width:1"/>
<line x1="337" y1="335" x2="337" y2="335" style="stroke:rgb(0,0,65535);stroke-width:1"/>
<line x1="337" y1="335" x2="336" y2="338" style="stroke:rgb(0,0,65535);stroke-width:1"/>
<line x1="336" y1="338" x2="335" y2="339" style="stroke:rgb(0,0,65535);stroke-width:1"/>
<line x1="335" y1="339" x2="335" y2="342" style="stroke:rgb(0,0,65535);stroke-width:1"/>
<line x1="335" y1="342" x2="335" y2="343" style="stroke:rgb(0,0,65535);stroke-width:1"/>
<line x1="335" y1="343" x2="335" y2="346" style="stroke:rgb(0,0,65535);stroke-width:1"/>
<line x1="335" y1="346" x2="336" y2="346" style="stroke:rgb(0,0,65535);stroke-width:1"/>
<line x1="336" y1="346" x2="337" y2="347" style="stroke:rgb(0,0,65535);stroke-width:1"/>
<line x1="337" y1="347" x2="340" y2="348" style="stroke:rgb(0,0,65535);stroke-width:1"/>
<line x1="340" y1="348" x2="341" y2="349" style="stroke:rgb(0,0,65535);stroke-width:1"/>
<line x1="341" y1="349" x2="343" y2="350" style="stroke:rgb(0,0,65535);stroke-width:1"/>
<line x1="343" y1="350" x2="344" y2="350" style="stroke:rgb(0,0,65535);stroke-width:1"/>
<line x1="344" y1="350" x2="345" y2="350" style="stroke:rgb(0,0,65535);stroke-width:1"/>
<line x1="345" y1="350" x2="346" y2="350" style="stroke:rgb(0,0,65535);stroke-width:1"/>
<line x1="346" y1="350" x2="347" y2="350" style="stroke:rgb(0,0,65535);stroke-width:1"/>
<line x1="347" y1="350" x2="350" y2="350" style="stroke:rgb(0,0,65535);stroke-width:1"/>
<line x1="350" y1="350" x2="350" y2="350" style="stroke:rgb(0,0,65535);stroke-width:1"/>
<line x1="364" y1="285" x2="364" y2="286" style="stroke:rgb(0,0,65535);stroke-width:1"/>
<line x1="364" y1="286" x2="364" y2="287" style="stroke:rgb(0,0,65535);stroke-width:1"/>
<line x1="364" y1="287" x2="364" y2="289" style="stroke:rgb(0,0,65535);stroke-width:1"/>
<line x1="364" y1="289" x2="364" y2="290" style="stroke:rgb(0,0,65535);stroke-width:1"/>
<line x1="364" y1="290" x2="364" y2="293" style="stroke:rgb(0,0,65535);stroke-width:1"/>
<line x1="364" y1="293" x2="363" y2="296" style="stroke:rgb(0,0,65535);stroke-width:1"/>
<line x1="363" y1="296" x2="363" y2="299" style="stroke:rgb(0,0,65535);stroke-width:1"/>
<line x1="363" y1="299" x2="363" y2="302" style="stroke:rgb(0,0,65535);stroke-width:1"/>
<line x1="363" y1="302" x2="363" y2="306" style="stroke:rgb(0,0,65535);stroke-width:1"/>
<line x1="363" y1="306" x2="362" y2="309" style="stroke:rgb(0,0,65535);stroke-width:1"/>
<line x1="362" y1="309" x2="362" y2="312" style="stroke:rgb(0,0,65535);stroke-width:1"/>
<line x1="362" y1="312" x2="362" y2="315" style="stroke:rgb(0,0,65535);stroke-width:1"/>
<line x1="362" y1="315" x2="361" y2="318" style="stroke:rgb(0,0,65535);stroke-width:1"/>
<line x1="361" y1="318" x2="361" y2="319" style="stroke:rgb(0,0,65535);stroke-width:1"/>
<line x1="361" y1="319" x2="361" y2="322" style="stroke:rgb(0,0,65535);stroke-width:1"/>
<line x1="361" y1="322" x2="361" y2="323" style="stroke:rgb(0,0,65535);stroke-width:1"/>
<line x1="361" y1="323" x2="361" y2="324" style="stroke:rgb(0,0,65535);stroke-width:1"/>
<line x1="361" y1="324" x2="361" y2="326" style="stroke:rgb(0,0,65535);stroke-width:1"/>
<line x1="361" y1="326" x2="361" y2="327" style="stroke:rgb(0,0,65535);stroke-width:1"/>
<line x1="361" y1="327" x2="361" y2="327" style="stroke:rgb(0,0,65535);stroke-width:1"/>
<line x1="361" y1="327" x2="361" y2="347" style="stroke:rgb(0,0,65535);stroke-width:1"/>
<line x1="91" y1="608" x2="91" y2="608" style="stroke:rgb(0,0,65535);stroke-width:1"/>
<line x1="317" y1="392" x2="317" y2="392" style="stroke:rgb(65535,0,0);stroke-width:1"/>
<line x1="317" y1="392" x2="317" y2="393" style="stroke:rgb(65535,0,0);stroke-width:1"/>
<line x1="317" y1="393" x2="317" y2="394" style="stroke:rgb(65535,0,0);stroke-width:1"/>
<line x1="317" y1="394" x2="318" y2="395" style="stroke:rgb(65535,0,0);stroke-width:1"/>
<line x1="318" y1="395" x2="318" y2="398" style="stroke:rgb(65535,0,0);stroke-width:1"/>
<line x1="318" y1="398" x2="319" y2="399" style="stroke:rgb(65535,0,0);stroke-width:1"/>
<line x1="319" y1="399" x2="320" y2="402" style="stroke:rgb(65535,0,0);stroke-width:1"/>
<line x1="320" y1="402" x2="321" y2="405" style="stroke:rgb(65535,0,0);stroke-width:1"/>
<line x1="321" y1="405" x2="321" y2="408" style="stroke:rgb(65535,0,0);stroke-width:1"/>
<line x1="321" y1="408" x2="322" y2="411" style="stroke:rgb(65535,0,0);stroke-width:1"/>
<line x1="322" y1="411" x2="323" y2="415" style="stroke:rgb(65535,0,0);stroke-width:1"/>
<line x1="323" y1="415" x2="325" y2="418" style="stroke:rgb(65535,0,0);stroke-width:1"/>
<line x1="325" y1="418" x2="327" y2="422" style="stroke:rgb(65535,0,0);stroke-width:1"/>
<line x1="327" y1="422" x2="327" y2="426" style="stroke:rgb(65535,0,0);stroke-width:1"/>
<line x1="327" y1="426" x2="328" y2="429" style="stroke:rgb(65535,0,0);stroke-width:1"/>
<line x1="328" y1="429" x2="329" y2="433" style="stroke:rgb(65535,0,0);stroke-width:1"/>
<line x1="329" y1="433" x2="331" y2="436" style="stroke:rgb(65535,0,0);stroke-width:1"/>
<line x1="331" y1="436" x2="332" y2="439" style="stroke:rgb(65535,0,0);stroke-width:1"/>
<line x1="332" y1="439" x2="333" y2="442" style="stroke:rgb(65535,0,0);stroke-width:1"/>
<line x1="333" y1="442" x2="334" y2="443" style="stroke:rgb(65535,0,0);stroke-width:1"/>
<line x1="334" y1="443" x2="334" y2="446" style="stroke:rgb(65535,0,0);stroke-width:1"/>
<line x1="334" y1="446" x2="335" y2="447" style="stroke:rgb(65535,0,0);stroke-width:1"/>
<line x1="335" y1="447" x2="335" y2="448" style="stroke:rgb(65535,0,0);stroke-width:1"/>
<line x1="335" y1="448" x2="336" y2="449" style="stroke:rgb(65535,0,0);stroke-width:1"/>
<line x1="336" y1="449" x2="336" y2="450" style="stroke:rgb(65535,0,0);stroke-width:1"/>
<line x1="336" y1="450" x2="336" y2="451" style="stroke:rgb(65535,0,0);stroke-width:1"/>
<line x1="336" y1="451" x2="336" y2="451" style="stroke:rgb(65535,0,0);stroke-width:1"/>
<line x1="318" y1="394" x2="318" y2="394" style="stroke:rgb(65535,0,0);stroke-width:1"/>
<line x1="318" y1="394" x2="318" y2="393" style="stroke:rgb(65535,0,0);stroke-width:1"/>
<line x1="318" y1="393" x2="318" y2="393" style="stroke:rgb(65535,0,0);stroke-width:1"/>
<line x1="318" y1="393" x2="318" y2="393" style="stroke:rgb(65535,0,0);stroke-width:1"/>
<line x1="318" y1="393" x2="318" y2="393" style="stroke:rgb(65535,0,0);stroke-width:1"/>
<line x1="318" y1="393" x2="318" y2="392" style="stroke:rgb(65535,0,0);stroke-width:1"/>
<line x1="318" y1="392" x2="319" y2="392" style="stroke:rgb(65535,0,0);stroke-width:1"/>
<line x1="319" y1="392" x2="320" y2="391" style="stroke:rgb(65535,0,0);stroke-width:1"/>
<line x1="320" y1="391" x2="321" y2="390" style="stroke:rgb(65535,0,0);stroke-width:1"/>
<line x1="321" y1="390" x2="323" y2="389" style="stroke:rgb(65535,0,0);stroke-width:1"/>
<line x1="323" y1="389" x2="324" y2="388" style="stroke:rgb(65535,0,0);stroke-width:1"/>
<line x1="324" y1="388" x2="326" y2="387" style="stroke:rgb(65535,0,0);stroke-width:1"/>
<line x1="326" y1="387" x2="327" y2="386" style="stroke:rgb(65535,0,0);stroke-width:1"/>
<line x1="327" y1="386" x2="330" y2="386" style="stroke:rgb(65535,0,0);stroke-width:1"/>
<line x1="330" y1="386" x2="331" y2="385" style="stroke:rgb(65535,0,0);stroke-width:1"/>
<line x1="331" y1="385" x2="334" y2="385" style="stroke:rgb(65535,0,0);stroke-width:1"/>
<line x1="334" y1="385" x2="335" y2="385" style="stroke:rgb(65535,0,0);stroke-width:1"/>
<line x1="335" y1="385" x2="337" y2="385" style="stroke:rgb(65535,0,0);stroke-width:1"/>
<line x1="337" y1="385" x2="338" y2="385" style="stroke:rgb(65535,0,0);stroke-width:1"/>
<line x1="338" y1="385" x2="339" y2="385" style="stroke:rgb(65535,0,0);stroke-width:1"/>
<line x1="339" y1="385" x2="341" y2="386" style="stroke:rgb(65535,0,0);stroke-width:1"/>
<line x1="341" y1="386" x2="342" y2="387" style="stroke:rgb(65535,0,0);stroke-width:1"/>
<line x1="342" y1="387" x2="342" y2="389" style="stroke:rgb(65535,0,0);stroke-width:1"/>
<line x1="342" y1="389" x2="343" y2="390" style="stroke:rgb(65535,0,0);stroke-width:1"/>
<line x1="343" y1="390" x2="343" y2="392" style="stroke:rgb(65535,0,0);stroke-width:1"/>
<line x1="343" y1="392" x2="343" y2="393" style="stroke:rgb(65535,0,0);stroke-width:1"/>
<line x1="343" y1="393" x2="343" y2="396" style="stroke:rgb(65535,0,0);stroke-width:1"/>
<line x1="343" y1="396" x2="343" y2="397" style="stroke:rgb(65535,0,0);stroke-width:1"/>
<line x1="343" y1="397" x2="343" y2="400" style="stroke:rgb(65535,0,0);stroke-width:1"/>
<line x1="343" y1="400" x2="342" y2="401" style="stroke:rgb(65535,0,0);stroke-width:1"/>
<line x1="342" y1="401" x2="341" y2="404" style="stroke:rgb(65535,0,0);stroke-width:1"/>
<line x1="341" y1="404" x2="338" y2="405" style="stroke:rgb(65535,0,0);stroke-width:1"/>
<line x1="338" y1="405" x2="337" y2="407" style="stroke:rgb(65535,0,0);stroke-width:1"/>
<line x1="337" y1="407" x2="336" y2="408" style="stroke:rgb(65535,0,0);stroke-width:1"/>
<line x1="336" y1="408" x2="334" y2="409" style="stroke:rgb(65535,0,0);stroke-width:1"/>
<line x1="334" y1="409" x2="333" y2="412" style="stroke:rgb(65535,0,0);stroke-width:1"/>
<line x1="333" y1="412" x2="332" y2="412" style="stroke:rgb(65535,0,0);stroke-width:1"/>
<line x1="332" y1="412" x2="331" y2="412" style="stroke:rgb(65535,0,0);stroke-width:1"/>
<line x1="331" y1="412" x2="330" y2="413" style="stroke:rgb(65535,0,0);stroke-width:1"/>
<line x1="330" y1="413" x2="330" y2="413" style="stroke:rgb(65535,0,0);stroke-width:1"/>
<line x1="330" y1="413" x2="329" y2="413" style="stroke:rgb(65535,0,0);stroke-width:1"/>
<line x1="329" y1="413" x2="329" y2="413" style="stroke:rgb(65535,0,0);stroke-width:1"/>
<line x1="329" y1="413" x2="330" y2="414" style="stroke:rgb(65535,0,0);stroke-width:1"/>
<line x1="330" y1="414" x2="331" y2="414" style="stroke:rgb(65535,0,0);stroke-width:1"/>
<line x1="331" y1="414" x2="332" y2="415" style="stroke:rgb(65535,0,0);stroke-width:1"/>
<line x1="332" y1="415" x2="334" y2="415" style="stroke:rgb(65535,0,0);stroke-width:1"/>
<line x1="334" y1="415" x2="335" y2="416" style="stroke:rgb(65535,0,0);stroke-width:1"/>
<line x1="335" y1="416" x2="337" y2="417" style="stroke:rgb(65535,0,0);stroke-width:1"/>
<line x1="337" y1="417" x2="338" y2="420" style="stroke:rgb(65535,0,0);stroke-width:1"/>
<line x1="338" y1="420" x2="341" y2="420" style="stroke:rgb(65535,0,0);stroke-width:1"/>
<line x1="341" y1="420" x2="343" y2="423" style="stroke:rgb(65535,0,0);stroke-width:1"/>
<line x1="343" y1="423" x2="346" y2="423" style="stroke:rgb(65535,0,0);stroke-width:1"/>
<line x1="346" y1="423" x2="348" y2="426" style="stroke:rgb(65535,0,0);stroke-width:1"/>
<line x1="348" y1="426" x2="350" y2="427" style="stroke:rgb(65535,0,0);stroke-width:1"/>
<line x1="350" y1="427" x2="353" y2="430" style="stroke:rgb(65535,0,0);stroke-width:1"/>
<line x1="353" y1="430" x2="355" y2="431" style="stroke:rgb(65535,0,0);stroke-width:1"/>
<line x1="355" y1="431" x2="357" y2="433" style="stroke:rgb(65535,0,0);stroke-width:1"/>
<line x1="357" y1="433" x2="358" y2="434" style="stroke:rgb(65535,0,0);stroke-width:1"/>
<line x1="358" y1="434" x2="361" y2="437" style="stroke:rgb(65535,0,0);stroke-width:1"/>
<line x1="361" y1="437" x2="362" y2="437" style="stroke:rgb(65535,0,0);stroke-width:1"/>
<line x1="362" y1="437" x2="364" y2="438" style="stroke:rgb(65535,0,0);stroke-width:1"/>
<line x1="364" y1="438" x2="365" y2="439" style="stroke:rgb(65535,0,0);stroke-width:1"/>
<line x1="365" y1="439" x2="366" y2="440" style="stroke:rgb(65535,0,0);stroke-width:1"/>
<line x1="366" y1="440" x2="366" y2="441" style="stroke:rgb(65535,0,0);stroke-width:1"/>
<line x1="366" y1="441" x2="367" y2="441" style="stroke:rgb(65535,0,0);stroke-width:1"/>
<line x1="367" y1="441" x2="367" y2="442" style="stroke:rgb(65535,0,0);stroke-width:1"/>
<line x1="367" y1="442" x2="367" y2="442" style="stroke:rgb(65535,0,0);stroke-width:1"/>
<line x1="367" y1="442" x2="368" y2="442" style="stroke:rgb(65535,0,0);stroke-width:1"/>
<line x1="368" y1="442" x2="368" y2="442" style="stroke:rgb(65535,0,0);stroke-width:1"/>
<line x1="368" y1="442" x2="368" y2="442" style="stroke:rgb(65535,0,0);stroke-width:1"/>
<line x1="369" y1="418" x2="369" y2="418" style="stroke:rgb(65535,0,0);stroke-width:1"/>
<line x1="369" y1="418" x2="369" y2="418" style="stroke:rgb(65535,0,0);stroke-width:1"/>
<line x1="369" y1="418" x2="369" y2="418" style="stroke:rgb(65535,0,0);stroke-width:1"/>
<line x1="369" y1="418" x2="369" y2="418" style="stroke:rgb(65535,0,0);stroke-width:1"/>
<line x1="369" y1="418" x2="369" y2="418" style="stroke:rgb(65535,0,0);stroke-width:1"/>
<line x1="369" y1="418" x2="370" y2="418" style="stroke:rgb(65535,0,0);stroke-width:1"/>
<line x1="370" y1="418" x2="370" y2="418" style="stroke:rgb(65535,0,0);stroke-width:1"/>
<line x1="370" y1="418" x2="371" y2="418" style="stroke:rgb(65535,0,0);stroke-width:1"/>
<line x1="371" y1="418" x2="371" y2="418" style="stroke:rgb(65535,0,0);stroke-width:1"/>
<line x1="371" y1="418" x2="372" y2="417" style="stroke:rgb(65535,0,0);stroke-width:1"/>
<line x1="372" y1="417" x2="373" y2="417" style="stroke:rgb(65535,0,0);stroke-width:1"/>
<line x1="373" y1="417" x2="374" y2="416" style="stroke:rgb(65535,0,0);stroke-width:1"/>
<line x1="374" y1="416" x2="375" y2="415" style="stroke:rgb(65535,0,0);stroke-width:1"/>
<line x1="375" y1="415" x2="376" y2="414" style="stroke:rgb(65535,0,0);stroke-width:1"/>
<line x1="376" y1="414" x2="377" y2="413" style="stroke:rgb(65535,0,0);stroke-width:1"/>
<line x1="377" y1="413" x2="378" y2="412" style="stroke:rgb(65535,0,0);stroke-width:1"/>
<line x1="378" y1="412" x2="379" y2="411" style="stroke:rgb(65535,0,0);stroke-width:1"/>
<line x1="379" y1="411" x2="380" y2="410" style="stroke:rgb(65535,0,0);stroke-width:1"/>
<line x1="380" y1="410" x2="380" y2="409" style="stroke:rgb(65535,0,0);stroke-width:1"/>
<line x1="380" y1="409" x2="380" y2="408" style="stroke:rgb(65535,0,0);stroke-width:1"/>
<line x1="380" y1="408" x2="380" y2="407" style="stroke:rgb(65535,0,0);stroke-width:1"/>
<line x1="380" y1="407" x2="381" y2="406" style="stroke:rgb(65535,0,0);stroke-width:1"/>
<line x1="381" y1="406" x2="381" y2="405" style="stroke:rgb(65535,0,0);stroke-width:1"/>
<line x1="381" y1="405" x2="381" y2="404" style="stroke:rgb(65535,0,0);stroke-width:1"/>
<line x1="381" y1="404" x2="380" y2="404" style="stroke:rgb(65535,0,0);stroke-width:1"/>
<line x1="380" y1="404" x2="379" y2="404" style="stroke:rgb(65535,0,0);stroke-width:1"/>
<line x1="379" y1="404" x2="378" y2="404" style="stroke:rgb(65535,0,0);stroke-width:1"/>
<line x1="378" y1="404" x2="377" y2="404" style="stroke:rgb(65535,0,0);stroke-width:1"/>
<line x1="377" y1="404" x2="376" y2="404" style="stroke:rgb(65535,0,0);stroke-width:1"/>
<line x1="376" y1="404" x2="374" y2="406" style="stroke:rgb(65535,0,0);stroke-width:1"/>
<line x1="374" y1="406" x2="374" y2="407" style="stroke:rgb(65535,0,0);stroke-width:1"/>
<line x1="374" y1="407" x2="373" y2="409" style="stroke:rgb(65535,0,0);stroke-width:1"/>
<line x1="373" y1="409" x2="372" y2="410" style="stroke:rgb(65535,0,0);stroke-width:1"/>
<line x1="372" y1="410" x2="372" y2="413" style="stroke:rgb(65535,0,0);stroke-width:1"/>
<line x1="372" y1="413" x2="372" y2="414" style="stroke:rgb(65535,0,0);stroke-width:1"/>
<line x1="372" y1="414" x2="372" y2="417" style="stroke:rgb(65535,0,0);stroke-width:1"/>
<line x1="372" y1="417" x2="372" y2="418" style="stroke:rgb(65535,0,0);stroke-width:1"/>
<line x1="372" y1="418" x2="372" y2="421" style="stroke:rgb(65535,0,0);stroke-width:1"/>
<line x1="372" y1="421" x2="373" y2="421" style="stroke:rgb(65535,0,0);stroke-width:1"/>
<line x1="373" y1="421" x2="376" y2="422" style="stroke:rgb(65535,0,0);stroke-width:1"/>
<line x1="376" y1="422" x2="377" y2="423" style="stroke:rgb(65535,0,0);stroke-width:1"/>
<line x1="377" y1="423" x2="380" y2="423" style="stroke:rgb(65535,0,0);stroke-width:1"/>
<line x1="380" y1="423" x2="382" y2="423" style="stroke:rgb(65535,0,0);stroke-width:1"/>
<line x1="382" y1="423" x2="385" y2="423" style="stroke:rgb(65535,0,0);stroke-width:1"/>
<line x1="385" y1="423" x2="387" y2="423" style="stroke:rgb(65535,0,0);stroke-width:1"/>
<line x1="387" y1="423" x2="389" y2="422" style="stroke:rgb(65535,0,0);stroke-width:1"/>
<line x1="389" y1="422" x2="391" y2="421" style="stroke:rgb(65535,0,0);stroke-width:1"/>
<line x1="391" y1="421" x2="393" y2="420" style="stroke:rgb(65535,0,0);stroke-width:1"/>
<line x1="393" y1="420" x2="394" y2="419" style="stroke:rgb(65535,0,0);stroke-width:1"/>
<line x1="394" y1="419" x2="395" y2="419" style="stroke:rgb(65535,0,0);stroke-width:1"/>
<line x1="395" y1="419" x2="396" y2="419" style="stroke:rgb(65535,0,0);stroke-width:1"/>
<line x1="396" y1="419" x2="396" y2="418" style="stroke:rgb(65535,0,0);stroke-width:1"/>
<line x1="396" y1="418" x2="397" y2="418" style="stroke:rgb(65535,0,0);stroke-width:1"/>
<line x1="397" y1="418" x2="398" y2="418" style="stroke:rgb(65535,0,0);stroke-width:1"/>
<line x1="398" y1="418" x2="398" y2="418" style="stroke:rgb(65535,0,0);stroke-width:1"/>
<line x1="416" y1="398" x2="416" y2="398" style="stroke:rgb(65535,0,0);stroke-width:1"/>
<line x1="416" y1="398" x2="416" y2="398" style="stroke:rgb(65535,0,0);stroke-width:1"/>
<line x1="416" y1="398" x2="415" y2="398" style="stroke:rgb(65535,0,0);stroke-width:1"/>
<line x1="415" y1="398" x2="414" y2="398" style="stroke:rgb(65535,0,0);stroke-width:1"/>
<line x1="414" y1="398" x2="414" y2="398" style="stroke:rgb(65535,0,0);stroke-width:1"/>
<line x1="414" y1="398" x2="413" y2="398" style="stroke:rgb(65535,0,0);stroke-width:1"/>
<line x1="413" y1="398" x2="410" y2="398" style="stroke:rgb(65535,0,0);stroke-width:1"/>
<line x1="410" y1="398" x2="410" y2="399" style="stroke:rgb(65535,0,0);stroke-width:1"/>
<line x1="410" y1="399" x2="409" y2="400" style="stroke:rgb(65535,0,0);stroke-width:1"/>
<line x1="409" y1="400" x2="408" y2="402" style="stroke:rgb(65535,0,0);stroke-width:1"/>
<line x1="408" y1="402" x2="407" y2="402" style="stroke:rgb(65535,0,0);stroke-width:1"/>
<line x1="407" y1="402" x2="406" y2="403" style="stroke:rgb(65535,0,0);stroke-width:1"/>
<line x1="406" y1="403" x2="405" y2="404" style="stroke:rgb(65535,0,0);stroke-width:1"/>
<line x1="405" y1="404" x2="405" y2="405" style="stroke:rgb(65535,0,0);stroke-width:1"/>
<line x1="405" y1="405" x2="405" y2="406" style="stroke:rgb(65535,0,0);stroke-width:1"/>
<line x1="405" y1="406" x2="405" y2="407" style="stroke:rgb(65535,0,0);stroke-width:1"/>
<line x1="405" y1="407" x2="405" y2="408" style="stroke:rgb(65535,0,0);stroke-width:1"/>
<line x1="405" y1="408" x2="405" y2="408" style="stroke:rgb(65535,0,0);stroke-width:1"/>
<line x1="405" y1="408" x2="406" y2="408" style="stroke:rgb(65535,0,0);stroke-width:1"/>
<line x1="406" y1="408" x2="407" y2="408" style="stroke:rgb(65535,0,0);stroke-width:1"/>
<line x1="407" y1="408" x2="408" y2="407" style="stroke:rgb(65535,0,0);stroke-width:1"/>
<line x1="408" y1="407" x2="411" y2="404" style="stroke:rgb(65535,0,0);stroke-width:1"/>
<line x1="411" y1="404" x2="411" y2="403" style="stroke:rgb(65535,0,0);stroke-width:1"/>
<line x1="411" y1="403" x2="412" y2="400" style="stroke:rgb(65535,0,0);stroke-width:1"/>
<line x1="412" y1="400" x2="413" y2="397" style="stroke:rgb(65535,0,0);stroke-width:1"/>
<line x1="413" y1="397" x2="414" y2="394" style="stroke:rgb(65535,0,0);stroke-width:1"/>
<line x1="414" y1="394" x2="415" y2="392" style="stroke:rgb(65535,0,0);stroke-width:1"/>
<line x1="415" y1="392" x2="416" y2="389" style="stroke:rgb(65535,0,0);stroke-width:1"/>
<line x1="416" y1="389" x2="416" y2="386" style="stroke:rgb(65535,0,0);stroke-width:1"/>
<line x1="416" y1="386" x2="416" y2="383" style="stroke:rgb(65535,0,0);stroke-width:1"/>
<line x1="416" y1="383" x2="416" y2="380" style="stroke:rgb(65535,0,0);stroke-width:1"/>
<line x1="416" y1="380" x2="416" y2="377" style="stroke:rgb(65535,0,0);stroke-width:1"/>
<line x1="416" y1="377" x2="415" y2="376" style="stroke:rgb(65535,0,0);stroke-width:1"/>
<line x1="415" y1="376" x2="415" y2="373" style="stroke:rgb(65535,0,0);stroke-width:1"/>
<line x1="415" y1="373" x2="414" y2="372" style="stroke:rgb(65535,0,0);stroke-width:1"/>
<line x1="414" y1="372" x2="413" y2="371" style="stroke:rgb(65535,0,0);stroke-width:1"/>
<line x1="413" y1="371" x2="410" y2="370" style="stroke:rgb(65535,0,0);stroke-width:1"/>
<line x1="410" y1="370" x2="410" y2="369" style="stroke:rgb(65535,0,0);stroke-width:1"/>
<line x1="410" y1="369" x2="409" y2="369" style="stroke:rgb(65535,0,0);stroke-width:1"/>
<line x1="409" y1="369" x2="408" y2="369" style="stroke:rgb(65535,0,0);stroke-width:1"/>
<line x1="408" y1="369" x2="407" y2="369" style="stroke:rgb(65535,0,0);stroke-width:1"/>
<line x1="407" y1="369" x2="407" y2="370" style="stroke:rgb(65535,0,0);stroke-width:1"/>
<line x1="407" y1="370" x2="406" y2="373" style="stroke:rgb(65535,0,0);stroke-width:1"/>
<line x1="406" y1="373" x2="406" y2="375" style="stroke:rgb(65535,0,0);stroke-width:1"/>
<line x1="406" y1="375" x2="406" y2="378" style="stroke:rgb(65535,0,0);stroke-width:1"/>
<line x1="406" y1="378" x2="406" y2="381" style="stroke:rgb(65535,0,0);stroke-width:1"/>
<line x1="406" y1="381" x2="406" y2="384" style="stroke:rgb(65535,0,0);stroke-width:1"/>
<line x1="406" y1="384" x2="407" y2="388" style="stroke:rgb(65535,0,0);stroke-width:1"/>
<line x1="407" y1="388" x2="408" y2="390" style="stroke:rgb(65535,0,0);stroke-width:1"/>
<line x1="408" y1="390" x2="411" y2="393" style="stroke:rgb(65535,0,0);stroke-width:1"/>
<line x1="411" y1="393" x2="412" y2="396" style="stroke:rgb(65535,0,0);stroke-width:1"/>
<line x1="412" y1="396" x2="414" y2="397" style="stroke:rgb(65535,0,0);stroke-width:1"/>
<line x1="414" y1="397" x2="415" y2="400" style="stroke:rgb(65535,0,0);stroke-width:1"/>
<line x1="415" y1="400" x2="416" y2="400" style="stroke:rgb(65535,0,0);stroke-width:1"/>
<line x1="416" y1="400" x2="417" y2="401" style="stroke:rgb(65535,0,0);stroke-width:1"/>
<line x1="417" y1="401" x2="418" y2="402" style="stroke:rgb(65535,0,0);stroke-width:1"/>
<line x1="418" y1="402" x2="419" y2="402" style="stroke:rgb(65535,0,0);stroke-width:1"/>
<line x1="419" y1="402" x2="420" y2="403" style="stroke:rgb(65535,0,0);stroke-width:1"/>
<line x1="420" y1="403" x2="421" y2="404" style="stroke:rgb(65535,0,0);stroke-width:1"/>
<line x1="421" y1="404" x2="421" y2="404" style="stroke:rgb(65535,0,0);stroke-width:1"/>
<line x1="418" y1="356" x2="418" y2="356" style="stroke:rgb(65535,0,0);stroke-width:1"/>
<line x1="418" y1="356" x2="418" y2="356" style="stroke:rgb(65535,0,0);stroke-width:1"/>
<line x1="418" y1="356" x2="418" y2="355" style="stroke:rgb(65535,0,0);stroke-width:1"/>
<line x1="418" y1="355" x2="418" y2="354" style="stroke:rgb(65535,0,0);stroke-width:1"/>
<line x1="418" y1="354" x2="419" y2="354" style="stroke:rgb(65535,0,0);stroke-width:1"/>
<line x1="419" y1="354" x2="420" y2="353" style="stroke:rgb(65535,0,0);stroke-width:1"/>
<line x1="420" y1="353" x2="421" y2="352" style="stroke:rgb(65535,0,0);stroke-width:1"/>
<line x1="421" y1="352" x2="423" y2="351" style="stroke:rgb(65535,0,0);stroke-width:1"/>
<line x1="423" y1="351" x2="424" y2="350" style="stroke:rgb(65535,0,0);stroke-width:1"/>
<line x1="424" y1="350" x2="426" y2="349" style="stroke:rgb(65535,0,0);stroke-width:1"/>
<line x1="426" y1="349" x2="427" y2="349" style="stroke:rgb(65535,0,0);stroke-width:1"/>
<line x1="427" y1="349" x2="429" y2="348" style="stroke:rgb(65535,0,0);stroke-width:1"/>
<line x1="429" y1="348" x2="430" y2="348" style="stroke:rgb(65535,0,0);stroke-width:1"/>
<line x1="430" y1="348" x2="431" y2="348" style="stroke:rgb(65535,0,0);stroke-width:1"/>
<line x1="431" y1="348" x2="432" y2="349" style="stroke:rgb(65535,0,0);stroke-width:1"/>
<line x1="432" y1="349" x2="433" y2="352" style="stroke:rgb(65535,0,0);stroke-width:1"/>
<line x1="433" y1="352" x2="433" y2="353" style="stroke:rgb(65535,0,0);stroke-width:1"/>
<line x1="433" y1="353" x2="433" y2="356" style="stroke:rgb(65535,0,0);stroke-width:1"/>
<line x1="433" y1="356" x2="433" y2="359" style="stroke:rgb(65535,0,0);stroke-width:1"/>
<line x1="433" y1="359" x2="433" y2="362" style="stroke:rgb(65535,0,0);stroke-width:1"/>
<line x1="433" y1="362" x2="433" y2="365" style="stroke:rgb(65535,0,0);stroke-width:1"/>
<line x1="433" y1="365" x2="433" y2="367" style="stroke:rgb(65535,0,0);stroke-width:1"/>
<line x1="433" y1="367" x2="433" y2="368" style="stroke:rgb(65535,0,0);stroke-width:1"/>
<line x1="433" y1="368" x2="433" y2="371" style="stroke:rgb(65535,0,0);stroke-width:1"/>
<line x1="433" y1="371" x2="433" y2="371" style="stroke:rgb(65535,0,0);stroke-width:1"/>
<line x1="433" y1="371" x2="433" y2="372" style="stroke:rgb(65535,0,0);stroke-width:1"/>
<line x1="433" y1="372" x2="433" y2="375" style="stroke:rgb(65535,0,0);stroke-width:1"/>
<line x1="433" y1="375" x2="433" y2="376" style="stroke:rgb(65535,0,0);stroke-width:1"/>
<line x1="433" y1="376" x2="433" y2="376" style="stroke:rgb(65535,0,0);stroke-width:1"/>
<line x1="442" y1="395" x2="442" y2="395" style="stroke:rgb(65535,0,0);stroke-width:1"/>
</svg>
